<?xml version="1.0" encoding="iso-8859-1"?>
<!-- Uploaded to: SVG Repo, www.svgrepo.com, Generator: SVG Repo Mixer Tools -->
<svg fill="#578E7E" height="800px" width="800px" version="1.1" id="Layer_1" xmlns="http://www.w3.org/2000/svg" xmlns:xlink="http://www.w3.org/1999/xlink" 
	 viewBox="0 0 512.001 512.001" xml:space="preserve">
<g>
	<g>
		<path d="M496.01,114.494c-10.163-6.876-23.7-7.734-37.144-2.349l-144.541,57.887c-0.014,0.005-0.024,0.013-0.038,0.018
			c-4.599-2.492-9.868-3.91-15.466-3.91h-85.645c-5.595,0-10.865,1.417-15.463,3.908L53.134,112.145
			c-13.442-5.383-26.979-4.528-37.144,2.349C5.828,121.37,0,133.62,0,148.101v215.8c0,14.481,5.828,26.731,15.99,33.607
			c5.745,3.888,12.568,5.851,19.844,5.851c5.594,0,11.456-1.161,17.3-3.501l144.58-57.903c4.598,2.491,9.867,3.908,15.463,3.908
			h85.645c5.601,0,10.873-1.42,15.476-3.915c0.07,0.03,0.136,0.067,0.207,0.095l144.361,57.815c5.844,2.341,11.705,3.501,17.3,3.501
			c7.275,0,14.099-1.963,19.844-5.851c10.162-6.876,15.99-19.126,15.99-33.607v-215.8C512,133.62,506.172,121.37,496.01,114.494z
			 M89.724,266.45h91.043v47.206c0,4.121,0.792,8.06,2.217,11.686l-137.62,55.115c-7.001,2.802-13.272,2.713-17.662-0.257
			c-4.388-2.97-6.804-8.758-6.804-16.3v-215.8c0-7.542,2.417-13.33,6.804-16.3c4.391-2.969,10.661-3.06,17.662-0.257l137.62,55.116
			c-1.425,3.626-2.217,7.564-2.217,11.685v47.207H89.724c-5.77,0-10.449,4.678-10.449,10.449
			C79.275,261.772,83.954,266.45,89.724,266.45z M310.335,313.655c0,6.236-5.164,11.309-11.513,11.309h-85.645
			c-6.348,0-11.513-5.073-11.513-11.308V198.346c0-6.235,5.164-11.308,11.513-11.308h85.645c6.348,0,11.513,5.073,11.513,11.308
			V313.655z M491.102,363.901c0,7.542-2.417,13.33-6.805,16.3c-4.388,2.97-10.66,3.06-17.66,0.257l-137.622-55.116
			c1.426-3.626,2.218-7.564,2.218-11.686V266.45h91.043c5.77,0,10.449-4.678,10.449-10.449c0-5.771-4.679-10.449-10.449-10.449
			h-91.043v-47.206c0-4.121-0.792-8.06-2.217-11.685l137.621-55.116c6.998-2.803,13.272-2.714,17.66,0.257
			c4.389,2.97,6.805,8.758,6.805,16.3V363.901z"/>
	</g>
</g>
<g>
	<g>
		<path d="M460.757,245.552h-4.678c-5.77,0-10.449,4.678-10.449,10.449c0,5.771,4.679,10.449,10.449,10.449h4.678
			c5.77,0,10.449-4.678,10.449-10.449C471.206,250.23,466.527,245.552,460.757,245.552z"/>
	</g>
</g>
<g>
	<g>
		<path d="M55.921,245.552h-4.678c-5.77,0-10.449,4.678-10.449,10.449c0,5.771,4.679,10.449,10.449,10.449h4.678
			c5.77,0,10.449-4.678,10.449-10.449C66.37,250.23,61.691,245.552,55.921,245.552z"/>
	</g>
</g>
</svg>