<?xml version="1.0" encoding="utf-8"?>
<!-- Designed by Vexels.com - 2016 All Rights Reserved - https://vexels.com/terms-and-conditions/  -->

<svg version="1.1" id="Layer_1" xmlns="http://www.w3.org/2000/svg" xmlns:xlink="http://www.w3.org/1999/xlink" x="0px" y="0px"
	 width="1200px" height="1200px" viewBox="0 0 1200 1200" enable-background="new 0 0 1200 1200" xml:space="preserve">
<g>
	<g>
		<g>
			<g>
				<path fill="#575756" d="M924.262,971.429v-108.69L736.301,727.556V526.904H470.11v196.409L282.132,856.41v111.316
					l-149.318,85.665v96.202h149.318V1150h217.6c0,0,0-18.985,0-147.839c0-128.82,97.143-130.939,97.143-130.939
					c126.734,0,118.286,126.765,118.286,126.765V1150h209.1v-0.407h142.924v-96.202L924.262,971.429z M651.694,629.031v82.335
					l-91.256-0.034l0.455-80.215c0,0-0.49-45.609,42.414-45.609C653.949,585.508,651.694,629.031,651.694,629.031z"/>
			</g>
		</g>
		<g>
			<polygon fill="#575756" points="476.859,499.067 730.038,499.067 619.125,237.154 619.125,128.227 665.647,128.227 
				665.647,105.908 619.125,105.908 619.125,50 596.775,50 596.775,105.908 549.667,105.908 549.667,128.227 596.775,128.227 
				596.775,234.359 			"/>
		</g>
	</g>
</g>
</svg>
