<?xml version="1.0" encoding="iso-8859-1"?>
<!-- Uploaded to: SVG Repo, www.svgrepo.com, Generator: SVG Repo Mixer Tools -->
<!DOCTYPE svg PUBLIC "-//W3C//DTD SVG 1.1//EN" "http://www.w3.org/Graphics/SVG/1.1/DTD/svg11.dtd">
<svg fill="#000000" version="1.1" id="Capa_1" xmlns="http://www.w3.org/2000/svg" xmlns:xlink="http://www.w3.org/1999/xlink" 
	 width="800px" height="800px" viewBox="0 0 576.814 576.814"
	 xml:space="preserve">
<g>
	<g>
		<path d="M318.467,124.071c-14.497-13.512-31.096,5.183-31.096,5.183h-0.125c0,0-16.6-18.695-31.097-5.183
			c-14.497,13.512-1.807,44.542,31.097,58.054l0.125,0.019C320.274,168.632,332.954,137.583,318.467,124.071z"/>
		<path d="M60.261,407.905l76.519-76.52c15.721,11.284,36.691,8.444,51.179-6.033l90.547-90.548c2.496-2.496,2.496-6.531,0-9.027
			l-45.135-45.135c-2.496-2.496-6.531-2.496-9.027,0l-90.538,90.538c-14.478,14.478-17.328,35.458-6.043,51.179l-76.5,76.5
			c-24.681-24.088-46.971-40.297-50.72-36.548c-3.949,3.949,14.076,28.362,40.249,54.544c26.173,26.173,50.595,44.198,54.544,40.249
			C98.999,453.423,83.526,431.965,60.261,407.905z"/>
		<path d="M525.543,398.85l-76.5-76.5c11.283-15.711,8.443-36.691-6.044-51.169l-90.537-90.538c-2.496-2.496-6.531-2.496-9.027,0
			L298.3,225.778c-2.496,2.496-2.496,6.531,0,9.027l90.547,90.548c14.478,14.478,35.458,17.327,51.179,6.033l76.52,76.52
			c-23.266,24.06-38.738,45.518-35.066,49.199c3.949,3.949,28.362-14.076,54.545-40.249c26.173-26.172,44.198-50.595,40.248-54.544
			C572.514,358.553,550.224,374.762,525.543,398.85z"/>
	</g>
</g>
</svg>